<svg xmlns="http://www.w3.org/2000/svg" viewBox="80 924 1104 236"><path fill="#001630" d="M635.347 955.145L156.64 955.227L106.205 1086.4C98.6786 1106.02 91.6306 1126.21 83.7272 1145.59L575.644 1145.62L714.355 1145.56L754.146 1145.53C755.21 1145.53 756.425 1145.52 757.742 1145.52C764.546 1145.48 774.051 1145.42 779.285 1146.22C789.23 1122.93 798.447 1093.83 807.075 1069.53C820.866 1031.42 834.458 993.239 847.851 954.988C827.996 955.499 807.419 955.423 787.198 955.348C781.03 955.326 774.895 955.303 768.823 955.297L635.347 955.145Z"/><path fill="#F2EEE2" d="M713.289 1051.22C710.571 1031.8 692.616 1018.26 673.196 1021C653.796 1023.73 640.278 1041.66 642.993 1061.06C645.709 1080.46 663.631 1093.99 683.034 1091.29C702.458 1088.59 716.008 1070.64 713.289 1051.22Z"/><path fill="#001630" d="M692.295 1044.66C688.151 1039.55 681.57 1037.06 675.079 1038.17C665.279 1039.84 658.625 1049.05 660.124 1058.88C661.623 1068.71 670.722 1075.52 680.574 1074.19C687.099 1073.31 692.641 1068.97 695.07 1062.85C697.5 1056.73 696.439 1049.78 692.295 1044.66Z"/><path fill="#F2EEE2" d="M320.816 1051.76C318.391 1032.3 300.624 1018.5 281.168 1020.98C261.781 1023.44 248.047 1041.13 250.462 1060.52C252.878 1079.92 270.533 1093.7 289.932 1091.33C309.4 1088.95 323.24 1071.22 320.816 1051.76Z"/><path fill="#001630" d="M303.477 1053.03C301.776 1043.16 292.411 1036.52 282.53 1038.18C272.595 1039.85 265.909 1049.28 267.619 1059.21C269.329 1069.14 278.783 1075.79 288.706 1074.04C298.573 1072.3 305.177 1062.91 303.477 1053.03Z"/><path fill="#F2EEE2" d="M602.793 1024.66C594.431 1022.83 585.648 1022.32 577.107 1022.82C572.914 1022.99 568.72 1023.11 564.525 1023.2L564.544 1089.26C566.264 1089.31 568.028 1089.38 569.824 1089.45C583.114 1089.98 598.129 1090.57 609.771 1085.19C634.341 1071.76 631.964 1031.03 602.793 1024.66Z"/><path fill="#001630" d="M583.133 1039.06C582.774 1039.07 582.417 1039.08 582.064 1039.09L582.253 1073.4C582.969 1073.41 583.676 1073.43 584.373 1073.44C591.667 1073.61 597.945 1073.75 604.08 1068.57C609.742 1059.38 611.638 1048.62 601.024 1041.91C595.894 1038.66 589.134 1038.87 583.133 1039.06Z"/><path fill="#F2EEE2" d="M470.503 1033.47C463.407 1021.48 442.303 1022.29 429.673 1022.83L417.031 1023.19L417.038 1089.28L434.532 1089.28C434.513 1088.71 434.489 1088.08 434.464 1087.41C434.266 1082.22 433.97 1074.48 435.284 1070.57C439.61 1066.43 445.765 1076 450.241 1082.95C452.26 1086.09 453.938 1088.7 454.952 1089.28L473.887 1089.28C469.33 1082.37 463.929 1074.55 459.731 1067.53C471.444 1059.99 478.439 1046.89 470.503 1033.47Z"/><path fill="#001630" d="M437.405 1038.42C436.477 1038.45 435.561 1038.47 434.669 1038.49L434.632 1054.34C435.487 1054.37 436.338 1054.41 437.187 1054.45C442.96 1054.73 448.581 1055 453.925 1052.47C459.935 1037.74 447.941 1038.1 437.405 1038.42Z"/><path fill="#F2EEE2" d="M396.526 1049.99C401.028 1021.92 372.069 1021.87 352.986 1022.83L340.4 1023.2L340.446 1089.27L357.685 1089.37C357.671 1088.48 357.635 1087.45 357.595 1086.32C357.405 1080.9 357.141 1073.4 358.982 1069.87C363.401 1066.79 368.987 1075.93 373.166 1082.77C375.106 1085.94 376.742 1088.62 377.819 1089.35L397.035 1089.21C392.495 1081.34 387.689 1074.93 382.936 1067.44C389.308 1063.24 395.24 1058 396.526 1049.99Z"/><path fill="#001630" d="M360.582 1038.38C359.637 1038.4 358.713 1038.42 357.828 1038.42L358.139 1054.39C359.073 1054.41 360.012 1054.45 360.952 1054.49C366.511 1054.7 372.114 1054.92 377.06 1052.42C384.041 1037.99 370.996 1038.21 360.582 1038.38Z"/><path fill="#F2EEE2" d="M740.598 1022.89C737.868 1023.01 735.283 1023.12 732.929 1023.17L732.933 1089.35L750.195 1089.29C750.225 1087.87 750.259 1086.44 750.294 1085.01C750.415 1079.94 750.538 1074.8 750.486 1069.79L757.322 1069.66L770.144 1089.28L782.517 1089.27L790.041 1089.17C785.323 1082.07 780.31 1074.74 775.846 1067.52C781.75 1063.95 787.289 1060.11 788.68 1052.87C794.907 1020.48 762.927 1021.9 740.598 1022.89Z"/><path fill="#001630" d="M752.288 1038.51C751.714 1038.52 751.152 1038.54 750.606 1038.55L750.326 1054.42C751.251 1054.45 752.163 1054.48 753.064 1054.52C758.784 1054.75 764.062 1054.96 769.563 1052.67C777.212 1037.86 762.808 1038.23 752.288 1038.51Z"/><path fill="#F2EEE2" d="M543.193 1023.17C526.841 1023.01 510.488 1023.01 494.136 1023.17C494.024 1045.2 494.028 1067.24 494.148 1089.27L543.678 1089.28L543.724 1073.39L511.42 1073.37C511.402 1072.84 511.378 1072.32 511.353 1071.81C511.236 1069.31 511.123 1066.9 511.774 1064.48L512.618 1063.61L539.964 1063.62L540.012 1048.66C530.469 1048.64 520.926 1048.68 511.384 1048.8L511.495 1039.06C522.018 1038.96 532.677 1038.95 543.187 1038.73L543.193 1023.17Z"/><path fill="#F2EEE2" d="M232.939 1040.47C223.339 1026.21 214.577 1020.78 196.866 1021.48C186.027 1023.3 177.477 1026.57 170.955 1036.11C160.52 1051.37 164.031 1074.72 179.717 1084.83C188.534 1090.45 199.248 1092.27 209.425 1089.87C220.195 1087.25 227.31 1080.47 233.108 1071.44L218.743 1065.22L217.207 1065.06C214.5 1067.7 212.926 1069.67 209.59 1071.63C197.264 1078.89 181.91 1070.04 182.442 1055.54C182.634 1050.32 185.015 1045.43 189.002 1042.07C192.597 1039.02 197.292 1037.59 201.978 1038.11C208.679 1038.86 213.164 1042.8 217.224 1047.8C222.638 1045.05 227.405 1042.89 232.939 1040.47Z"/><path fill="#001630" d="M872.901 928.402L855.006 928.363C852.136 937.315 849.039 946.192 845.719 954.988C832.326 993.239 818.734 1031.42 804.943 1069.53C796.315 1093.83 787.098 1122.93 777.153 1146.22C776.105 1149.14 774.818 1152.47 773.929 1155.41L791.941 1155.36L969.61 1155.31C982.03 1155.32 994.647 1155.26 1007.33 1155.2C1034.12 1155.08 1061.2 1154.95 1087.34 1155.43L1105.73 1155.41C1123.09 1100.14 1141.92 1044.87 1159.89 989.697L1171.86 953.16C1173.96 946.813 1178.39 934.748 1179.09 928.675C1173.59 928.416 1167.42 928.476 1161.87 928.407L964.802 928.849L908.135 928.781C905.523 928.778 902.857 928.787 900.162 928.797C891.068 928.829 881.651 928.863 872.901 928.402Z"/><path fill="#C49C42" d="M872.901 928.402L855.006 928.363C852.136 937.315 849.039 946.192 845.719 954.988C832.326 993.239 818.734 1031.42 804.943 1069.53C796.315 1093.83 787.098 1122.93 777.153 1146.22C776.105 1149.14 774.818 1152.47 773.929 1155.41L791.941 1155.36C809.211 1103.72 829.687 1050.67 848.428 999.369C853.857 984.549 859.198 969.696 864.448 954.811C867.014 947.508 871.459 935.635 872.901 928.402Z"/><path fill="#C49C42" d="M1179.09 928.675C1173.59 928.416 1167.42 928.476 1161.87 928.407C1158.23 942.235 1152.23 959.514 1147.73 973.249L1121.31 1052.62L1099 1119.61C1095.64 1129.89 1091.05 1145.76 1087.34 1155.43L1105.73 1155.41C1123.09 1100.14 1141.92 1044.87 1159.89 989.697L1171.86 953.16C1173.96 946.813 1178.39 934.748 1179.09 928.675Z"/><path fill="#F2EEE2" d="M981.174 955.854L924.539 955.819L891.741 997.985C889.906 1000.33 888.048 1002.66 886.189 1005C866.91 1029.23 847.507 1053.62 851.911 1086.75C858.865 1139.06 919.907 1151.92 961.88 1134.37C973.407 1128.56 982.861 1121.92 990.189 1111.01C1003.7 1090.92 1005.89 1061.57 995.066 1039.84C988.764 1026.99 977.529 1017.24 963.921 1012.8C954.972 1009.84 947.2 1009.48 937.907 1009.67C952.705 992.037 967.13 974.094 981.174 955.854Z"/><path fill="#001630" d="M952.872 1069.58C950.761 1054.99 937.302 1044.81 922.686 1046.75C913.078 1048.03 904.898 1054.37 901.269 1063.36C897.64 1072.34 899.122 1082.59 905.149 1090.18C911.176 1097.77 920.818 1101.53 930.393 1100.03C944.961 1097.75 954.983 1084.17 952.872 1069.58Z"/><path fill="#F2EEE2" d="M1078.48 955.846L1027.25 955.729C1019.72 971.82 1012.33 987.906 1004.02 1003.62L1030.44 1003.71L1030.5 1136.48L1055.31 1136.49L1078.47 1136.49L1078.48 955.846Z"/></svg>
